<svg version="1.1" id="Layer_1" xmlns="http://www.w3.org/2000/svg" xmlns:xlink="http://www.w3.org/1999/xlink" x="0px" y="0px"
	 width="100%" viewBox="0 0 2048 2048" enable-background="new 0 0 2048 2048" xml:space="preserve">
<path fill="none" opacity="1.000000" stroke="#000000" stroke-linecap="round" stroke-linejoin="round" stroke-width="11.000000"
	d="
M1411.500000,875.000000 
	C1412.894531,865.166687 1411.847534,855.306702 1411.359131,845.507019 
	C1410.801025,834.309998 1409.458862,823.126465 1407.929688,812.009705 
	C1405.793823,796.482788 1402.562866,781.129333 1398.432373,766.018494 
	C1392.558228,744.529175 1385.528809,723.440247 1376.611206,702.951599 
	C1368.556274,684.444946 1359.674683,666.393311 1349.446533,649.031494 
	C1335.817383,625.896179 1320.339844,604.006653 1302.952393,583.540466 
	C1289.576294,567.795837 1274.840820,553.357483 1259.554688,539.440002 
	C1243.172974,524.525146 1225.800171,510.909607 1207.461792,498.556702 
	C1187.300537,484.975952 1166.075073,473.163361 1143.970947,463.063690 
	C1117.262939,450.860474 1089.615845,441.215363 1060.994141,434.525299 
	C1044.994507,430.785553 1028.847534,427.962494 1012.518860,425.853882 
	C989.232117,422.846741 965.893066,422.042908 942.502686,422.609955 
	C928.801636,422.942078 915.132751,424.193420 901.483398,425.864471 
	C882.603882,428.175812 863.912659,431.335419 845.513123,436.051178 
	C820.620422,442.431091 796.527161,451.037842 772.942261,461.368225 
	C733.332214,478.717834 697.348083,501.699493 664.020081,529.024536 
	C645.560486,544.159241 628.501892,560.807983 612.536560,578.532959 
	C593.376953,599.804260 576.691162,622.960693 562.067871,647.540344 
	C551.001465,666.141296 541.236023,685.463257 533.034180,705.513977 
	C523.470215,728.894775 515.376404,752.732483 509.844269,777.465149 
	C507.015961,790.109497 504.182159,802.764282 502.175507,815.527588 
	C500.203918,828.067749 499.418304,840.816833 498.576569,853.505066 
	C497.870575,864.147034 497.285553,874.850952 497.628723,885.495850 
	C498.140076,901.356873 498.870514,917.210999 500.869507,933.016479 
	C503.255432,951.881165 506.701324,970.477295 510.854126,989.032654 
	C517.213379,1017.446960 527.066650,1044.544678 538.978271,1071.009766 
	C555.668030,1108.090820 577.285583,1142.054810 602.966248,1173.527588 
	C614.254517,1187.361938 626.213257,1200.596924 639.072205,1212.924683 
	C667.523376,1240.200195 698.794983,1263.860352 733.021118,1283.463135 
	C768.218811,1303.622437 805.542419,1318.811523 844.531738,1329.888306 
	C847.380249,1330.697632 850.562683,1330.623779 853.500000,1331.500000 
"/>
<path fill="none" opacity="1.000000" stroke="#000000" stroke-linecap="round" stroke-linejoin="round" stroke-width="11.000000"
	d="
M1139.500000,820.500000 
	C1132.226685,816.477844 1131.622070,808.479675 1128.517700,801.991516 
	C1119.441284,783.021545 1108.709473,765.253662 1094.630981,749.383789 
	C1079.296265,732.097595 1061.278198,718.540588 1040.933105,708.130798 
	C1024.598877,699.773315 1007.335754,693.948486 989.030701,690.820496 
	C964.667664,686.657288 940.495178,686.873047 916.528564,692.130249 
	C886.844543,698.641602 860.148315,711.611877 836.431335,730.915649 
	C813.654236,749.454346 796.545532,772.250244 784.139954,798.565979 
	C777.740906,812.140076 773.478333,826.544556 770.837830,841.471313 
	C768.896118,852.447632 767.594238,863.416687 767.553589,874.500183 
	C767.409607,913.711731 778.054382,949.800598 800.582825,981.941956 
	C824.887451,1016.617249 857.036682,1041.176636 897.466980,1054.599487 
	C901.282898,1055.866455 904.372070,1055.887573 907.500000,1053.500000 
"/>
<path fill="none" opacity="1.000000" stroke="#000000" stroke-linecap="round" stroke-linejoin="round" stroke-width="10.000000"
	d="
M531.750000,839.500000 
	C531.569153,846.335876 531.103760,853.158447 530.888489,859.996460 
	C530.346985,877.197266 530.713867,894.318176 531.848206,911.510010 
	C534.156006,946.488037 541.494141,980.423584 552.653076,1013.448303 
	C567.459839,1057.268921 588.647705,1098.036621 616.662109,1134.876709 
	C633.957153,1157.620361 653.373535,1178.614380 674.940918,1197.567261 
	C696.809143,1216.784546 719.988403,1234.139282 745.021729,1248.963379 
	C768.857788,1263.078369 793.781250,1274.901489 819.970093,1284.085327 
	C830.576416,1287.804565 841.254456,1291.239868 851.997742,1294.507446 
	C853.798584,1295.055298 855.572266,1295.685791 857.500000,1295.500000 
"/>
<path fill="none" opacity="1.000000" stroke="#000000" stroke-linecap="round" stroke-linejoin="round" stroke-width="10.000000"
	d="
M1094.500000,808.500000 
	C1090.667358,806.443787 1088.096191,803.452332 1085.889282,799.562866 
	C1072.013428,775.108032 1052.290771,756.204712 1027.878052,742.720703 
	C1013.848816,734.971741 998.634521,729.577881 982.526306,726.845032 
	C969.015808,724.552917 955.489929,723.658752 942.014832,725.135437 
	C908.419739,728.816895 878.529541,741.404541 853.532715,764.535339 
	C841.510498,775.660034 830.996460,788.020020 822.925415,802.458313 
	C812.953735,820.296448 806.513611,839.216553 804.573853,859.507080 
	C802.337708,882.899536 804.438660,905.912964 813.029846,927.988403 
	C827.825073,966.005310 853.625732,994.161072 890.060547,1012.378906 
	C896.513672,1015.605530 903.360413,1018.320618 910.494080,1020.024780 
	C913.123718,1020.652832 915.638672,1021.612671 915.750000,1025.000000 
"/>
<path fill="none" opacity="1.000000" stroke="#000000" stroke-linecap="round" stroke-linejoin="round" stroke-width="10.000000"
	d="
M1028.500000,460.500000 
	C1050.229370,464.675812 1071.610229,470.151459 1092.503174,477.490997 
	C1121.579468,487.705170 1149.268066,500.773926 1175.526611,516.956787 
	C1201.079956,532.704895 1224.680054,550.844055 1246.587769,571.406555 
	C1274.833618,597.918091 1298.658203,627.773438 1318.566772,660.959900 
	C1338.025024,693.395508 1352.910645,727.761719 1363.435303,764.018799 
	C1368.525269,781.553711 1372.329102,799.454712 1374.832275,817.523254 
	C1376.617676,830.409607 1377.802002,843.420349 1378.185181,856.494568 
	C1378.338745,861.740784 1377.766968,866.836548 1377.500000,872.000000 
"/>
<path fill="none" opacity="1.000000" stroke="#000000" stroke-linecap="round" stroke-linejoin="round" stroke-width="10.000000"
	d="
M1073.000000,506.500000 
	C1093.674438,513.610291 1113.600220,522.439026 1133.006714,532.487061 
	C1153.668823,543.185242 1173.003784,555.919128 1191.522583,569.970215 
	C1203.229370,578.852722 1214.380371,588.405457 1224.920654,598.582153 
	C1241.788086,614.867676 1257.288208,632.466248 1270.925415,651.553345 
	C1284.245850,670.197266 1296.271362,689.699585 1305.970703,710.513611 
	C1320.795898,742.326843 1332.296631,775.221436 1338.075684,809.987427 
	C1339.403320,817.974426 1340.592041,825.962280 1341.500000,834.000000 
"/>
<path fill="none" opacity="1.000000" stroke="#000000" stroke-linecap="round" stroke-linejoin="round" stroke-width="10.000000"
	d="
M566.500000,900.000000 
	C565.127502,905.381409 566.614197,910.796753 567.237061,915.971497 
	C570.084106,939.625732 574.369385,963.067627 581.030884,985.991028 
	C585.686646,1002.011963 591.404480,1017.678894 598.033386,1032.985596 
	C606.677917,1052.946289 616.780884,1072.177124 628.557800,1090.462769 
	C637.661926,1104.598389 647.731750,1118.063965 658.483459,1131.013672 
	C668.448425,1143.015991 679.172791,1154.313965 690.541687,1164.955444 
	C714.544617,1187.422607 740.841003,1206.800537 769.460571,1223.069458 
	C782.001038,1230.197998 795.004883,1236.319336 808.000000,1242.500000 
"/>
<path fill="none" opacity="1.000000" stroke="#000000" stroke-linecap="round" stroke-linejoin="round" stroke-width="11.000000"
	d="
M1301.500000,1154.750000 
	C1299.362793,1154.623901 1298.070435,1156.073486 1297.032593,1157.523315 
	C1287.077393,1171.432739 1276.116699,1184.433716 1262.958862,1195.450806 
	C1262.199585,1196.086670 1260.976685,1196.441895 1261.047241,1197.496826 
	C1261.401733,1202.790527 1258.100586,1206.648071 1256.031982,1211.015137 
	C1253.615479,1216.116943 1255.266724,1221.438843 1256.271362,1226.445557 
	C1256.647583,1228.320190 1256.915527,1230.537109 1257.823242,1232.578613 
	C1260.273438,1238.089600 1259.167236,1239.415894 1254.041748,1243.058716 
	C1242.243652,1251.443970 1230.663452,1260.114868 1218.541504,1268.063232 
	C1194.805786,1283.626709 1169.989746,1297.192505 1143.961548,1308.410767 
	C1118.324341,1319.460327 1091.771240,1327.808350 1064.527954,1334.120728 
	C1046.012695,1338.410767 1027.329346,1341.617310 1008.482605,1343.305786 
	C989.733154,1344.985596 970.858948,1346.265625 952.004578,1345.400269 
	C937.481628,1344.733765 922.998596,1343.183350 908.502625,1341.968994 
	C907.316284,1341.869751 906.099792,1341.478271 905.011230,1340.975708 
	C899.322144,1338.349609 897.430725,1338.589355 893.511902,1343.010498 
	C884.214905,1353.499512 874.061340,1363.002319 862.547546,1371.067871 
	C859.272217,1373.362427 856.085754,1375.209595 852.000183,1374.996826 
	C850.862793,1374.937622 850.055969,1375.333862 849.750000,1376.500000 
"/>
<path fill="none" opacity="1.000000" stroke="#000000" stroke-linecap="round" stroke-linejoin="round" stroke-width="10.000000"
	d="
M1061.500000,539.500000 
	C1061.352539,542.086609 1061.630981,543.487793 1064.935547,544.678833 
	C1111.245361,561.369385 1153.012451,585.742004 1189.527466,618.969727 
	C1217.180542,644.133240 1240.113037,672.936279 1258.564941,705.463196 
	C1275.270752,734.912292 1287.067871,766.233154 1294.825684,799.041199 
	C1297.798218,811.611633 1300.389648,824.420532 1300.500000,837.500000 
"/>
<path fill="none" opacity="1.000000" stroke="#000000" stroke-linecap="round" stroke-linejoin="round" stroke-width="10.000000"
	d="
M610.000000,895.500000 
	C610.314209,924.604248 616.031372,952.783142 624.492249,980.502380 
	C632.616699,1007.119324 644.253174,1032.066406 658.342285,1056.092529 
	C673.422058,1081.807983 691.598083,1104.994995 712.595764,1125.903809 
	C740.004700,1153.196777 771.207397,1175.419678 805.979553,1192.541504 
	C811.126709,1195.076050 816.000000,1198.166748 821.000000,1201.000000 
"/>
<path fill="none" opacity="1.000000" stroke="#000000" stroke-linecap="round" stroke-linejoin="round" stroke-width="10.000000"
	d="
M1049.000000,590.500000 
	C1071.047852,597.213867 1091.375366,607.611633 1110.996948,619.505005 
	C1137.202393,635.389160 1160.327148,655.038025 1180.415894,678.073303 
	C1200.691406,701.322754 1217.239014,727.081848 1229.517578,755.492432 
	C1237.756226,774.555725 1244.318726,794.145996 1248.474854,814.505127 
	C1249.993286,821.942810 1251.897705,829.334412 1252.000000,837.000000 
"/>
<path fill="none" opacity="1.000000" stroke="#000000" stroke-linecap="round" stroke-linejoin="round" stroke-width="17.000000"
	d="
M1309.500000,1498.500000 
	C1308.678223,1490.179077 1309.147461,1481.729004 1307.455566,1473.509155 
	C1304.328125,1458.314819 1293.294067,1453.687744 1280.033691,1455.947754 
	C1266.800537,1458.203247 1260.856812,1466.662720 1259.427368,1480.492554 
	C1256.862549,1505.305786 1258.161377,1530.167725 1258.190063,1554.999756 
	C1258.200806,1564.355957 1258.821899,1573.825684 1261.839355,1583.052490 
	C1264.815674,1592.153931 1273.800049,1598.955444 1286.997070,1597.960815 
	C1299.617920,1597.009644 1304.907227,1590.947388 1307.429443,1579.983765 
	C1309.502075,1570.973877 1308.904663,1561.671875 1309.500000,1552.500000 
"/>
<path fill="none" opacity="1.000000" stroke="#000000" stroke-linecap="round" stroke-linejoin="round" stroke-width="15.000000"
	d="
M1690.000000,1493.000000 
	C1690.034668,1485.896729 1689.081787,1478.957031 1687.607910,1471.977173 
	C1684.838989,1458.865601 1672.202271,1453.733032 1660.494263,1455.969849 
	C1646.309937,1458.680054 1637.956665,1470.365601 1640.002686,1484.999634 
	C1641.254395,1493.952148 1645.141479,1501.465820 1651.435181,1508.061890 
	C1661.772583,1518.895874 1673.732910,1528.055054 1683.085327,1539.932739 
	C1694.077148,1553.892578 1695.088745,1569.148071 1689.313843,1584.931885 
	C1685.509521,1595.330200 1676.482910,1598.242432 1666.001709,1597.940063 
	C1649.511597,1597.464233 1643.713867,1586.911621 1642.374268,1573.512573 
	C1641.806030,1567.828735 1641.523926,1562.184814 1641.500000,1556.500000 
"/>
<path fill="none" opacity="1.000000" stroke="#000000" stroke-linecap="round" stroke-linejoin="round" stroke-width="10.000000"
	d="
M1038.250000,624.000000 
	C1069.375732,635.404907 1098.111328,651.165649 1123.421143,672.593140 
	C1146.610352,692.225464 1165.975708,715.233826 1181.583496,741.450317 
	C1193.977295,762.268494 1203.566528,784.186829 1209.964111,807.509827 
	C1212.389160,816.349792 1214.145386,825.347229 1215.026367,834.497437 
	C1215.172485,836.015503 1215.666748,837.500000 1216.000000,839.000000 
"/>
<path fill="none" opacity="1.000000" stroke="#000000" stroke-linecap="round" stroke-linejoin="round" stroke-width="11.000000"
	d="
M1245.000000,1072.500000 
	C1242.305420,1074.012817 1239.989258,1074.961792 1236.405518,1073.788696 
	C1233.002075,1072.674683 1228.801636,1074.166504 1225.017456,1074.639526 
	C1205.388794,1077.093140 1185.891602,1080.402100 1167.006104,1086.518799 
	C1148.640381,1092.467163 1131.094116,1100.075195 1114.923462,1110.885498 
	C1105.169678,1117.406128 1101.849976,1126.001831 1115.508667,1133.985107 
	C1131.142822,1143.123047 1147.856812,1149.849609 1165.017090,1155.447510 
	C1175.591431,1158.896973 1186.327637,1161.852905 1197.008301,1164.971680 
	C1198.165405,1165.309570 1198.754395,1165.767578 1198.500000,1167.000000 
"/>
<path fill="none" opacity="1.000000" stroke="#000000" stroke-linecap="round" stroke-linejoin="round" stroke-width="11.000000"
	d="
M1250.500000,900.500000 
	C1238.841797,901.108215 1227.962158,905.003723 1217.005127,908.515869 
	C1192.570312,916.347961 1169.445435,927.161621 1147.000000,939.500000 
	C1124.916504,951.639526 1104.269409,965.931458 1084.519897,981.525146 
	C1067.264038,995.149963 1051.419189,1010.377686 1035.552002,1025.554443 
	C1031.045044,1029.865234 1027.200562,1034.864502 1022.969666,1039.472168 
	C1022.180481,1040.331665 1021.609741,1041.747925 1020.000000,1041.500000 
"/>
<path fill="none" opacity="1.000000" stroke="#000000" stroke-linecap="round" stroke-linejoin="round" stroke-width="11.000000"
	d="
M994.000000,875.000000 
	C994.848572,853.053955 976.311707,833.257385 951.018005,836.156921 
	C936.068237,837.870667 925.231995,846.578003 919.617493,860.547241 
	C913.817810,874.977234 917.116455,888.404663 927.070496,899.939148 
	C937.097961,911.558655 950.320068,915.741760 964.943909,911.792297 
	C979.493591,907.862854 989.713745,898.624695 993.159546,883.035278 
	C993.727173,880.467102 993.773743,878.014282 994.000000,875.500000 
"/>
<path fill="none" opacity="1.000000" stroke="#000000" stroke-linecap="round" stroke-linejoin="round" stroke-width="14.000000"
	d="
M575.500061,1595.500000 
	C574.000061,1587.000000 573.093445,1578.338867 570.840393,1570.043335 
	C568.373169,1560.959229 568.687744,1551.574463 566.585510,1542.480225 
	C564.526001,1533.571045 563.174988,1524.498413 561.498169,1515.500366 
	C558.671570,1500.332520 555.937805,1485.145752 552.912842,1470.017456 
	C552.299255,1466.948486 550.367310,1464.297729 548.057861,1461.943237 
	C546.000916,1459.846191 544.454163,1461.446411 543.594055,1462.571899 
	C541.261902,1465.623169 539.655579,1469.130127 538.994934,1472.999146 
	C535.313599,1494.558350 531.196777,1516.037842 527.247803,1537.545532 
	C525.723511,1545.847778 523.097412,1554.125977 524.167969,1563.039917 
	C524.627747,1566.868164 521.425903,1571.036377 520.855774,1575.481445 
	C520.084167,1581.497314 518.429138,1587.401245 517.912781,1593.492554 
	C517.873291,1593.958374 517.733154,1595.295044 516.500000,1595.250000 
"/>
<path fill="none" opacity="1.000000" stroke="#000000" stroke-linecap="round" stroke-linejoin="round" stroke-width="11.000000"
	d="
M1170.500000,1017.500000 
	C1167.338623,1017.031555 1164.302979,1017.909546 1161.525391,1019.061096 
	C1130.137939,1032.073242 1101.839966,1050.227295 1075.530029,1071.537109 
	C1054.143433,1088.859375 1034.407593,1108.034546 1014.519653,1127.020630 
	C1004.100830,1136.966919 993.360718,1146.545776 982.545715,1156.052002 
	C980.615112,1157.749023 978.598816,1157.395264 976.500000,1157.500000 
"/>
<path fill="none" opacity="1.000000" stroke="#000000" stroke-linecap="round" stroke-linejoin="round" stroke-width="17.000000"
	d="
M368.000000,1521.000000 
	C369.591248,1523.623413 371.873688,1525.401978 374.458801,1527.064087 
	C380.352966,1530.853760 382.705078,1536.699463 383.556122,1543.492920 
	C384.749664,1553.020752 384.557068,1562.442261 383.652710,1572.014404 
	C382.488495,1584.337646 377.499207,1595.597656 358.993317,1596.331421 
	C350.347321,1596.674438 341.328491,1598.350342 333.024994,1593.867188 
	C331.789703,1588.500000 332.950684,1583.000610 332.976349,1577.499878 
	C333.045532,1562.666870 332.603577,1547.819092 333.136719,1533.004883 
	C333.503540,1522.812622 332.881073,1512.667358 332.978577,1502.499756 
	C333.076080,1492.334106 333.036163,1482.166382 332.963654,1472.000244 
	C332.951813,1470.342041 332.924042,1468.692383 332.613892,1466.979370 
	C331.490997,1460.776733 333.775269,1457.394165 340.005341,1457.122192 
	C348.826569,1456.737183 357.742645,1456.340942 366.490662,1458.047974 
	C374.703674,1459.650513 380.624695,1466.172363 381.265961,1476.514526 
	C381.819427,1485.440430 382.672760,1494.567871 380.108429,1503.531006 
	C379.023987,1507.321777 377.643127,1510.585571 374.507690,1513.009888 
	C373.952850,1513.438965 373.363373,1513.920898 373.021118,1514.512207 
	C369.354858,1520.846191 363.590057,1521.496460 356.993958,1521.100464 
	C349.686981,1520.661621 342.333344,1521.000000 335.000000,1521.000000 
"/>
<path fill="none" opacity="1.000000" stroke="#000000" stroke-linecap="round" stroke-linejoin="round" stroke-width="10.000000"
	d="
M658.000000,895.500000 
	C658.219360,914.563416 661.805603,933.157715 666.579163,951.479370 
	C676.919128,991.166443 694.731201,1027.309204 719.529358,1059.977661 
	C722.815430,1064.306763 726.599182,1068.254883 729.971497,1072.522461 
	C733.217651,1076.630493 737.452209,1078.740112 742.500000,1079.500000 
"/>
<path fill="none" opacity="1.000000" stroke="#000000" stroke-linecap="round" stroke-linejoin="round" stroke-width="10.000000"
	d="
M694.500000,899.000000 
	C694.368958,908.004700 696.339417,916.734802 698.009949,925.498108 
	C701.753418,945.136047 707.145142,964.281799 715.511841,982.494568 
	C727.801025,1009.245544 743.679688,1033.611206 763.993164,1055.006470 
	C765.212097,1056.290283 766.345093,1057.656616 767.498047,1059.001709 
	C774.036438,1066.630005 781.435486,1073.002930 791.500000,1075.500000 
"/>
<path fill="none" opacity="1.000000" stroke="#000000" stroke-linecap="round" stroke-linejoin="round" stroke-width="17.000000"
	d="
M1119.500000,1524.500000 
	C1120.952637,1521.952637 1123.070801,1520.016357 1125.518188,1518.529907 
	C1130.084473,1515.756592 1132.311279,1511.420410 1132.915649,1506.489624 
	C1134.344238,1494.836182 1134.604614,1483.060059 1132.359497,1471.527344 
	C1130.605835,1462.518311 1122.301514,1457.221069 1111.499634,1457.021973 
	C1105.001831,1456.902222 1098.499023,1456.929810 1092.000244,1457.018555 
	C1084.695923,1457.118286 1083.000000,1458.877441 1083.000000,1466.000000 
	C1083.000000,1482.833374 1083.000000,1499.666626 1083.000000,1516.500000 
	C1083.000000,1542.333374 1083.000000,1568.166626 1083.000000,1594.000000 
"/>
<path fill="none" opacity="1.000000" stroke="#000000" stroke-linecap="round" stroke-linejoin="round" stroke-width="11.000000"
	d="
M1266.750000,918.500000 
	C1267.873779,923.663879 1264.395874,927.364990 1262.450928,931.476807 
	C1253.892700,949.570312 1246.646729,968.144348 1241.542358,987.511169 
	C1240.420166,991.768372 1239.730469,996.150085 1239.026978,1000.504333 
	C1238.203247,1005.602783 1239.612427,1009.792725 1243.950073,1013.066223 
	C1246.750854,1015.179871 1248.163208,1018.145325 1248.094971,1022.001709 
	C1247.989380,1027.965454 1252.213379,1032.280029 1255.081421,1036.949951 
	C1266.725220,1055.908081 1280.023682,1073.542236 1298.525024,1086.464111 
	C1315.934082,1098.622925 1335.383057,1105.213379 1356.485107,1107.630127 
	C1367.185791,1108.855713 1377.833496,1108.181152 1388.501221,1108.450684 
	C1392.581055,1108.553833 1396.750122,1108.280884 1400.453125,1110.095581 
	C1402.856567,1111.273438 1404.677246,1109.957031 1406.464844,1109.389404 
	C1415.210449,1106.612671 1422.038086,1100.644043 1428.984253,1094.980713 
	C1442.538818,1083.929199 1455.757080,1072.505981 1468.568237,1060.573242 
	C1487.837891,1042.625122 1506.594360,1024.216797 1523.471924,1003.976562 
	C1528.487427,997.961731 1533.550293,991.921204 1537.868408,985.412659 
	C1540.870850,980.887146 1543.611694,976.069946 1546.231323,971.350830 
	C1550.832031,963.062378 1549.152344,951.691650 1536.522705,949.845032 
	C1533.527954,949.407104 1530.330566,947.949707 1528.000000,945.500000 
"/>
<path fill="none" opacity="1.000000" stroke="#000000" stroke-linecap="round" stroke-linejoin="round" stroke-width="17.000000"
	d="
M1486.500000,1524.500000 
	C1488.747070,1521.895752 1491.067383,1519.473389 1493.929565,1517.402588 
	C1499.586426,1513.309570 1500.152710,1506.623047 1500.335449,1500.495117 
	C1500.588135,1492.017334 1500.972290,1483.513550 1499.625854,1474.980103 
	C1497.985962,1464.586060 1492.734985,1459.399170 1482.522583,1457.851074 
	C1474.644531,1456.656982 1466.834106,1457.177246 1458.999146,1457.061646 
	C1451.700195,1456.953735 1450.000000,1458.877441 1450.000000,1466.000000 
	C1450.000000,1482.833374 1450.000000,1499.666626 1450.000000,1516.500000 
	C1450.000000,1542.666626 1450.000000,1568.833374 1450.000000,1595.000000 
"/>
<path fill="none" opacity="1.000000" stroke="#000000" stroke-linecap="round" stroke-linejoin="round" stroke-width="11.000000"
	d="
M1475.000000,988.500000 
	C1474.373779,983.834656 1476.757690,980.365417 1479.492554,976.993958 
	C1491.675415,961.974121 1507.254395,952.247070 1525.379150,945.667114 
	C1530.352417,943.861633 1535.733765,939.599487 1537.406860,933.474548 
	C1538.866211,928.132019 1538.841431,923.040833 1535.122925,917.910889 
	C1525.090576,904.070740 1510.824097,897.888184 1495.003906,893.984253 
	C1471.663452,888.224487 1448.012817,883.929138 1424.464478,879.175781 
	C1419.834351,878.241211 1415.177124,875.650757 1411.032837,875.952026 
	C1405.977539,876.319519 1401.247925,875.558105 1396.516479,874.884216 
	C1376.429199,872.023499 1356.254028,870.455322 1336.002319,869.452332 
	C1312.785522,868.302368 1289.591553,868.753174 1266.515503,871.149780 
	C1249.355835,872.931946 1232.182007,875.171204 1215.483643,879.942810 
	C1213.436646,880.527893 1211.163330,880.501709 1209.000732,880.460083 
	C1205.855713,880.399414 1203.211670,881.106384 1200.427124,882.885986 
	C1194.544189,886.645752 1187.459473,887.573975 1180.941284,889.830261 
	C1175.145508,891.836487 1169.618042,895.022583 1162.990479,894.687256 
	C1160.402954,894.556335 1158.691772,897.893494 1156.049683,899.108093 
	C1148.193237,902.720032 1139.951904,905.513245 1132.487793,909.979675 
	C1131.408447,910.625610 1130.112915,910.903198 1129.009155,911.516541 
	C1123.675903,914.480225 1122.168457,914.174316 1116.961548,910.555359 
	C1112.174805,907.228271 1106.504272,905.709167 1100.989502,904.034485 
	C1092.968750,901.598694 1085.142334,898.214478 1076.500000,898.500000 
"/>
<path fill="none" opacity="1.000000" stroke="#000000" stroke-linecap="round" stroke-linejoin="round" stroke-width="11.000000"
	d="
M913.500000,1141.000000 
	C909.602966,1135.311401 902.981750,1133.594727 897.417480,1130.656250 
	C871.165649,1116.792725 843.697388,1105.834961 814.470337,1100.152466 
	C800.368713,1097.410767 785.892639,1095.743042 771.522705,1097.220947 
	C763.368530,1098.059570 754.455261,1097.061646 747.353943,1103.334717 
	C746.043274,1104.492310 742.833313,1103.500000 740.500000,1103.500000 
"/>
<path fill="none" opacity="1.000000" stroke="#000000" stroke-linecap="round" stroke-linejoin="round" stroke-width="11.000000"
	d="
M1313.500000,948.500000 
	C1312.282959,955.448792 1312.855713,962.513489 1312.276367,969.522827 
	C1311.595947,977.758606 1312.827393,986.181641 1313.548462,994.495789 
	C1314.281372,1002.946777 1315.641479,1011.329285 1318.015625,1019.495483 
	C1322.570801,1035.163330 1329.039795,1049.576416 1342.448975,1060.065186 
	C1356.831055,1071.314941 1372.384521,1073.845215 1389.500000,1068.000000 
"/>
<path fill="none" opacity="1.000000" stroke="#000000" stroke-linecap="round" stroke-linejoin="round" stroke-width="11.000000"
	d="
M1119.500000,914.000000 
	C1114.119751,921.560486 1105.251831,924.144775 1097.926514,928.886536 
	C1093.272339,931.899292 1089.298340,936.596741 1083.000000,936.500000 
	C1079.583008,943.703613 1071.718994,945.833008 1066.451172,950.949707 
	C1063.324341,953.986572 1058.316772,955.457520 1055.879150,958.322632 
	C1052.515503,962.276306 1048.118042,964.957764 1044.975464,968.980774 
	C1043.166016,971.297119 1040.855957,973.343384 1037.977051,973.875793 
	C1035.853394,974.268494 1035.853027,975.919495 1035.048096,977.034668 
	C1033.166504,979.641174 1031.659180,982.657776 1028.946655,984.417786 
	C1026.596680,985.942383 1024.342896,987.131348 1020.877441,985.222473 
	C1016.659119,982.898865 1011.344177,983.306396 1006.496277,983.079895 
	C991.988525,982.402161 977.498047,983.595337 963.001099,984.036499 
	C959.994568,984.127991 957.060913,984.971680 954.005127,985.112122 
	C950.691650,985.264404 949.566223,988.221497 949.033752,991.006470 
	C944.346436,1015.524963 936.538208,1039.116211 928.037109,1062.513428 
	C926.868042,1065.730957 926.198608,1069.130005 925.232422,1072.686035 
	C929.476868,1075.684448 934.345581,1075.539185 939.003479,1075.961426 
	C946.489380,1076.639893 953.988770,1077.104492 960.500000,1081.500000 
"/>
<path fill="none" opacity="1.000000" stroke="#000000" stroke-linecap="round" stroke-linejoin="round" stroke-width="11.000000"
	d="
M1260.500000,1197.000000 
	C1256.843140,1195.686890 1253.530518,1196.666504 1249.972900,1197.923340 
	C1219.470825,1208.699341 1188.335205,1217.274536 1156.475830,1222.862427 
	C1141.467896,1225.494873 1126.253540,1227.124023 1110.999878,1227.997681 
	C1110.667603,1228.016846 1110.307739,1227.917480 1110.003784,1228.011963 
	C1101.256470,1230.731689 1092.313965,1228.196777 1083.502563,1229.026978 
	C1081.984619,1229.170044 1080.469116,1229.569702 1079.010742,1230.033569 
	C1078.009521,1230.352173 1077.450806,1231.276123 1075.962769,1230.579468 
	C1069.224487,1227.424561 1061.998901,1229.223999 1054.998169,1229.103882 
	C1047.450684,1228.974365 1040.023560,1227.728394 1032.505371,1227.383667 
	C1029.023315,1227.223999 1025.822998,1226.789917 1022.436096,1228.362427 
	C1020.555054,1229.235596 1019.697876,1229.752075 1019.377991,1231.982544 
	C1018.818665,1235.881348 1015.199951,1237.889282 1012.393616,1239.847534 
	C1008.859314,1242.314087 1006.583496,1246.516968 1002.000000,1247.500000 
"/>
<path fill="none" opacity="1.000000" stroke="#000000" stroke-linecap="round" stroke-linejoin="round" stroke-width="10.000000"
	d="
M1429.500000,936.000000 
	C1428.863159,926.781128 1425.160645,919.230530 1416.972168,914.548767 
	C1409.018799,910.001343 1400.801147,909.749084 1392.488281,913.976929 
	C1383.835938,918.377319 1379.549683,925.503418 1379.018311,935.001038 
	C1378.334961,947.212952 1385.432861,957.948059 1399.545776,960.771179 
	C1410.309326,962.924377 1421.564331,958.566833 1427.520508,946.009766 
	C1428.587524,943.760376 1429.175903,941.485535 1429.010376,938.999329 
	C1428.917725,937.608032 1428.895508,936.183044 1431.000000,936.500000 
"/>
<path fill="none" opacity="1.000000" stroke="#000000" stroke-linecap="round" stroke-linejoin="round" stroke-width="16.000000"
	d="
M793.500000,1458.500000 
	C793.500000,1504.166626 793.500000,1549.833374 793.500000,1595.500000 
"/>
<path fill="none" opacity="1.000000" stroke="#000000" stroke-linecap="round" stroke-linejoin="round" stroke-width="14.000000"
	d="
M754.500000,1457.750000 
	C752.743225,1458.632446 751.343933,1459.577148 751.448669,1462.002197 
	C751.687134,1467.525513 749.235046,1472.435059 747.503906,1477.501343 
	C735.829773,1511.665405 724.163147,1545.832153 712.508423,1580.002808 
	C711.776978,1582.147461 711.109680,1584.317749 710.510376,1586.502808 
	C708.523743,1593.746704 709.959900,1595.524902 717.497864,1596.031982 
	C729.495361,1596.839233 741.499939,1596.335938 753.500000,1596.500000 
"/>
<path fill="none" opacity="1.000000" stroke="#000000" stroke-linecap="round" stroke-linejoin="round" stroke-width="11.000000"
	d="
M747.000000,1104.000000 
	C748.064209,1107.562378 750.750305,1109.855225 753.517517,1111.977173 
	C763.807007,1119.867676 773.999878,1127.899170 784.533691,1135.453003 
	C808.676941,1152.766479 835.127075,1179.748291 852.091553,1203.935791 
	C858.744812,1213.421753 861.055237,1223.867676 861.470398,1235.001099 
	C862.148743,1253.193115 861.600159,1271.427612 859.650574,1289.462280 
	C858.732788,1297.952393 859.354248,1306.609253 857.172241,1315.044556 
	C856.281128,1318.489258 856.398926,1322.551636 858.500000,1326.000000 
"/>
<path fill="none" opacity="1.000000" stroke="#000000" stroke-linecap="round" stroke-linejoin="round" stroke-width="11.000000"
	d="
M1328.000000,1222.500000 
	C1322.546265,1229.645264 1321.160645,1238.567017 1317.537476,1246.517090 
	C1310.448120,1262.072021 1302.847656,1277.274658 1290.492554,1289.492432 
	C1285.189331,1294.736694 1283.275879,1294.498291 1280.052490,1287.475952 
	C1274.200928,1274.727417 1268.495728,1261.904053 1263.133057,1248.944946 
	C1261.949829,1246.085693 1260.151489,1243.909180 1258.500000,1241.500000 
"/>
<path fill="none" opacity="1.000000" stroke="#000000" stroke-linecap="round" stroke-linejoin="round" stroke-width="11.000000"
	d="
M1204.500000,880.000000 
	C1201.536011,873.454956 1194.978394,871.366760 1189.484009,868.026245 
	C1168.917847,855.522034 1146.761230,846.486267 1123.956055,839.136414 
	C1113.212524,835.673828 1102.025635,833.551331 1090.978149,831.098206 
	C1088.798584,830.614197 1086.275391,830.521912 1084.000000,831.500000 
"/>
<path fill="none" opacity="1.000000" stroke="#000000" stroke-linecap="round" stroke-linejoin="round" stroke-width="15.000000"
	d="
M615.000000,1459.000000 
	C616.000000,1464.166626 617.109985,1469.316284 617.918884,1474.512573 
	C618.109375,1475.736816 618.694641,1477.110107 617.547852,1478.538452 
	C612.889587,1484.339966 613.839905,1491.315308 614.124878,1497.994629 
	C614.230896,1500.480103 614.468872,1502.997070 614.484619,1505.500122 
	C614.674927,1535.666626 614.833313,1565.833374 614.999939,1596.000000 
"/>
<path fill="none" opacity="1.000000" stroke="#000000" stroke-linecap="round" stroke-linejoin="round" stroke-width="15.000000"
	d="
M841.499939,1458.500000 
	C842.499939,1464.166626 843.557190,1469.824341 844.450806,1475.507690 
	C844.625793,1476.620605 844.571289,1478.163696 843.933044,1478.945312 
	C840.263000,1483.441284 840.220032,1488.703857 840.526062,1493.998535 
	C841.537231,1511.493774 840.826477,1529.000122 840.970764,1546.500244 
	C841.106873,1562.999146 841.000000,1579.500000 841.000000,1596.000000 
"/>
<path fill="none" opacity="1.000000" stroke="#000000" stroke-linecap="round" stroke-linejoin="round" stroke-width="15.000000"
	d="
M895.000000,1458.000000 
	C895.000000,1474.833374 895.064941,1491.666992 894.982056,1508.499878 
	C894.895874,1526.000366 894.644653,1543.499878 894.515320,1561.000122 
	C894.482483,1565.446777 892.735535,1569.150146 890.000000,1572.500000 
"/>
<path fill="none" opacity="1.000000" stroke="#000000" stroke-linecap="round" stroke-linejoin="round" stroke-width="14.000000"
	d="
M668.500000,1457.500000 
	C668.500000,1490.833374 668.441895,1524.166870 668.559631,1557.499756 
	C668.578369,1562.792969 667.451294,1567.460571 664.000000,1571.500000 
"/>
<path fill="none" opacity="1.000000" stroke="#000000" stroke-linecap="round" stroke-linejoin="round" stroke-width="10.000000"
	d="
M1531.000000,915.000000 
	C1525.113892,918.191956 1518.288574,918.997192 1512.482788,922.471313 
	C1497.261108,931.580017 1484.217896,943.363708 1472.089111,956.084961 
	C1460.118408,968.640503 1447.722778,980.876343 1437.525635,995.018433 
	C1434.829468,998.757690 1432.213867,1002.457153 1431.882080,1007.492249 
	C1431.521240,1012.966919 1433.619141,1016.779297 1438.022339,1019.463379 
	C1442.252319,1022.041748 1446.876221,1021.607483 1450.952148,1019.411255 
	C1457.478027,1015.894775 1460.365234,1009.300415 1463.532593,1003.016418 
	C1465.008911,1000.087158 1466.503784,997.057983 1468.583374,994.569641 
	C1471.185547,991.455994 1473.472290,987.994080 1479.056396,989.248840 
	C1482.982788,990.131165 1487.096924,987.481079 1490.995850,985.989075 
	C1501.537476,981.955017 1512.027222,977.741028 1523.011719,975.047852 
	C1529.206299,973.528992 1535.486572,972.830566 1541.250000,976.750000 
"/>
<path fill="none" opacity="1.000000" stroke="#000000" stroke-linecap="round" stroke-linejoin="round" stroke-width="11.000000"
	d="
M902.000000,1155.500000 
	C881.596985,1145.042358 859.961121,1138.080200 837.471130,1134.165894 
	C824.819946,1131.963867 811.908997,1131.110107 799.000671,1130.948364 
	C794.409607,1130.890991 792.882202,1134.823364 790.000000,1137.000000 
"/>
<path fill="none" opacity="1.000000" stroke="#000000" stroke-linecap="round" stroke-linejoin="round" stroke-width="16.000000"
	d="
M464.500000,1524.500000 
	C466.015808,1522.682495 467.321838,1520.634155 469.504578,1519.508911 
	C474.616272,1516.873657 477.300171,1512.215210 477.855774,1506.984619 
	C479.055695,1495.687866 479.986084,1484.218750 477.394440,1473.024414 
	C474.862671,1462.088867 468.665314,1457.404053 457.498627,1457.042236 
	C450.505981,1456.815674 443.446899,1456.460938 436.514221,1457.144165 
	C428.825623,1457.901855 428.387970,1458.494263 428.438812,1465.500488 
	C428.536774,1478.999634 428.379059,1492.502930 428.220184,1506.002563 
	C428.152466,1511.756104 427.743225,1517.722168 429.354156,1523.540405 
	C429.930481,1525.621826 428.576752,1528.162720 428.541290,1530.500610 
	C428.296204,1546.666016 428.114502,1562.833130 428.030304,1579.000122 
	C428.003418,1584.165771 428.333344,1589.333374 428.500000,1594.500000 
"/>
<path fill="none" opacity="1.000000" stroke="#000000" stroke-linecap="round" stroke-linejoin="round" stroke-width="17.000000"
	d="
M1219.750000,1459.000000 
	C1219.383545,1457.168335 1218.151245,1456.952515 1216.499756,1456.965698 
	C1207.500244,1457.037842 1198.498169,1456.887939 1189.500610,1457.036255 
	C1182.592407,1457.150024 1181.000000,1458.984741 1181.000000,1466.000000 
	C1181.000000,1482.666626 1180.531860,1499.352539 1181.213501,1515.991211 
	C1181.517456,1523.415649 1180.334717,1530.655029 1180.471069,1538.000488 
	C1180.604248,1545.164673 1180.061890,1552.366943 1180.607666,1559.491699 
	C1181.337769,1569.025024 1180.442505,1578.500122 1180.511108,1587.999878 
	C1180.525024,1589.920898 1180.681641,1591.840820 1180.764648,1593.596436 
	C1184.543213,1595.982666 1188.482178,1596.015015 1192.499756,1596.036865 
	C1201.833862,1596.087769 1211.166626,1596.333252 1220.500000,1596.500000 
"/>
<path fill="none" opacity="1.000000" stroke="#000000" stroke-linecap="round" stroke-linejoin="round" stroke-width="11.000000"
	d="
M1357.500000,1147.000000 
	C1363.026367,1156.599854 1364.566284,1167.370117 1366.473022,1178.004883 
	C1369.453247,1194.626099 1370.100342,1211.307129 1366.980835,1227.996460 
	C1365.989868,1233.298218 1365.015869,1238.591797 1362.625366,1243.560303 
	C1361.972900,1244.916382 1361.348877,1246.340942 1360.449219,1247.459106 
	C1357.681519,1250.899048 1355.027466,1251.226196 1352.070068,1247.937012 
	C1347.796021,1243.183472 1344.164795,1237.855469 1339.946777,1233.046631 
	C1336.691040,1229.335205 1334.592285,1224.556763 1329.553589,1222.376221 
	C1327.409302,1221.448242 1327.431763,1218.907959 1327.943848,1216.488159 
	C1329.594849,1208.686646 1331.347534,1200.880127 1332.409424,1192.987793 
	C1333.657837,1183.708984 1335.039185,1174.411255 1335.000732,1165.000000 
	C1334.995972,1163.833374 1334.665405,1162.539307 1335.053223,1161.520264 
	C1338.057495,1153.625732 1334.373413,1146.155396 1333.750000,1138.500000 
"/>
<path fill="none" opacity="1.000000" stroke="#000000" stroke-linecap="round" stroke-linejoin="round" stroke-width="10.000000"
	d="
M1321.500000,1151.000000 
	C1315.672852,1188.116455 1305.757446,1223.831055 1285.500000,1256.000000 
"/>
<path fill="none" opacity="1.000000" stroke="#000000" stroke-linecap="round" stroke-linejoin="round" stroke-width="11.000000"
	d="
M1019.500000,1229.500000 
	C1012.711426,1224.505127 1004.870056,1226.531494 997.502197,1226.643433 
	C985.651611,1226.823486 973.879272,1228.208984 962.460754,1231.877808 
	C960.569275,1232.485596 958.803162,1233.247681 956.998108,1233.995361 
	C954.313843,1235.107544 953.629944,1237.031372 952.722839,1239.912720 
	C950.384338,1247.340210 946.782166,1254.387085 943.479004,1261.490234 
	C932.069092,1286.026611 919.267151,1309.771362 902.967285,1331.475464 
	C901.352356,1333.625854 900.186890,1335.757202 900.500000,1338.500000 
"/>
<path fill="none" opacity="1.000000" stroke="#000000" stroke-linecap="round" stroke-linejoin="round" stroke-width="11.000000"
	d="
M928.500000,1231.500000 
	C922.903381,1244.029541 917.365479,1256.575928 910.530640,1268.517578 
	C898.836426,1288.948730 884.435364,1307.180054 866.981323,1322.979370 
	C865.175781,1324.613770 863.164673,1325.712158 860.520508,1326.129761 
	C856.486267,1326.766846 854.954102,1329.944458 854.427490,1334.491577 
	C853.150574,1345.517456 851.750061,1356.543945 849.828430,1367.469849 
	C849.332336,1370.290649 851.008911,1372.454956 850.500000,1375.000000 
"/>
<path fill="none" opacity="1.000000" stroke="#000000" stroke-linecap="round" stroke-linejoin="round" stroke-width="10.000000"
	d="
M1238.000000,1086.500000 
	C1204.788940,1091.478760 1174.298706,1103.630127 1146.037354,1121.558838 
	C1143.743286,1123.014160 1140.196533,1123.933228 1141.000000,1128.000000 
"/>
<path fill="none" opacity="1.000000" stroke="#000000" stroke-linecap="round" stroke-linejoin="round" stroke-width="12.000000"
	d="
M895.000000,1596.000000 
	C892.350342,1589.592041 892.259033,1582.612549 890.645508,1575.964722 
	C890.162598,1573.975098 889.796997,1572.587524 888.024170,1571.461914 
	C883.832764,1568.801025 882.028687,1564.664917 880.388123,1560.039673 
	C871.963013,1536.287354 863.151855,1512.671997 854.511902,1488.995605 
	C852.692993,1484.011108 849.574768,1480.170044 845.000000,1477.500000 
"/>
<path fill="none" opacity="1.000000" stroke="#000000" stroke-linecap="round" stroke-linejoin="round" stroke-width="12.000000"
	d="
M619.000000,1477.500000 
	C626.349731,1480.549194 628.070007,1487.621094 630.444763,1494.020508 
	C638.588745,1515.967041 646.543091,1537.984497 654.461731,1560.013794 
	C655.951477,1564.158203 657.974121,1568.055054 661.599426,1570.342407 
	C664.023315,1571.871948 664.541931,1573.823120 664.955322,1576.008423 
	C666.243713,1582.818848 667.333313,1589.666626 668.500000,1596.500000 
"/>
<path fill="none" opacity="1.000000" stroke="#000000" stroke-linecap="round" stroke-linejoin="round" stroke-width="10.000000"
	d="
M1102.000000,1231.000000 
	C1102.594360,1237.488892 1098.062866,1241.781372 1094.906738,1246.436768 
	C1083.031860,1263.952393 1069.204590,1279.807007 1052.989624,1293.487671 
	C1049.728027,1296.239502 1046.533691,1299.159790 1042.923340,1301.375122 
	C1040.827026,1302.661499 1038.322876,1304.044312 1035.500000,1303.500000 
"/>
<path fill="none" opacity="1.000000" stroke="#000000" stroke-linecap="round" stroke-linejoin="round" stroke-width="12.000000"
	d="
M1084.500000,1524.500000 
	C1094.331055,1524.201416 1104.169434,1524.972656 1114.009155,1524.103760 
	C1116.571533,1523.877563 1119.066772,1524.814453 1121.581665,1526.367798 
	C1132.568604,1533.153320 1132.811768,1544.240112 1133.399170,1555.005493 
	C1134.016235,1566.314331 1133.745483,1577.668945 1134.052979,1588.998535 
	C1134.145752,1592.421143 1133.708374,1595.471069 1131.250000,1598.000000 
"/>
<path fill="none" opacity="1.000000" stroke="#000000" stroke-linecap="round" stroke-linejoin="round" stroke-width="16.000000"
	d="
M1451.500000,1524.500000 
	C1461.833374,1524.500000 1472.167236,1524.559814 1482.499634,1524.460205 
	C1485.264160,1524.433472 1487.116333,1525.172974 1489.123169,1527.388428 
	C1492.787842,1531.433716 1497.957031,1534.227783 1498.515869,1540.498535 
	C1498.754272,1543.173706 1499.442505,1545.832153 1499.454468,1548.500244 
	C1499.524536,1564.173950 1501.052002,1579.814453 1500.500000,1595.500000 
"/>
<path fill="none" opacity="1.000000" stroke="#000000" stroke-linecap="round" stroke-linejoin="round" stroke-width="16.000000"
	d="
M430.000000,1524.500000 
	C440.333344,1524.500000 450.667816,1524.584106 460.999207,1524.442993 
	C463.711639,1524.406006 465.094727,1525.951660 467.113159,1527.334839 
	C476.614716,1533.846069 477.377747,1543.314819 477.603210,1553.497681 
	C477.880005,1565.997314 478.625549,1578.487671 478.505005,1591.000000 
	C478.491150,1592.440430 478.226501,1594.009399 480.000000,1594.750000 
"/>
<path fill="none" opacity="1.000000" stroke="#000000" stroke-linecap="round" stroke-linejoin="round" stroke-width="11.000000"
	d="
M1069.000000,878.000000 
	C1068.894775,884.888123 1069.808472,891.900757 1066.976196,898.489807 
	C1064.662598,903.872009 1061.431396,908.716614 1056.454224,911.929077 
	C1052.963501,914.182190 1051.633911,916.447876 1051.705933,921.004639 
	C1051.802856,927.146790 1049.665405,933.168701 1047.182861,939.076843 
	C1043.654663,947.473938 1036.150024,951.456482 1029.867676,956.923157 
	C1032.374023,962.587402 1032.153076,969.166931 1036.500000,974.000000 
"/>
<path fill="none" opacity="1.000000" stroke="#000000" stroke-linecap="round" stroke-linejoin="round" stroke-width="11.000000"
	d="
M1402.000000,1111.000000 
	C1400.640381,1115.378906 1397.958374,1118.587036 1394.027344,1121.043701 
	C1383.599854,1127.560547 1373.674316,1134.839722 1363.092896,1141.155640 
	C1359.247803,1143.450806 1356.321411,1146.850830 1351.565063,1148.225220 
	C1346.372437,1149.725586 1345.755249,1152.871094 1347.473511,1158.008911 
	C1351.390503,1169.721436 1351.219971,1181.889893 1350.934692,1193.998413 
	C1350.710205,1203.531006 1347.952759,1212.878906 1348.500000,1222.500000 
"/>
<path fill="none" opacity="1.000000" stroke="#000000" stroke-linecap="round" stroke-linejoin="round" stroke-width="11.000000"
	d="
M1024.000000,987.000000 
	C1023.475647,990.349854 1021.792419,993.283264 1019.427917,995.420288 
	C1014.687073,999.705200 1011.480103,1005.336670 1006.185913,1009.251404 
	C1003.831726,1010.992065 1003.302002,1015.358765 1000.996033,1017.996521 
	C996.623535,1022.998108 992.825684,1028.517334 988.850525,1033.765503 
	C985.522522,1038.159424 983.447327,1043.808960 980.057312,1048.541016 
	C974.113342,1056.838135 971.131592,1066.828491 965.754028,1075.344727 
	C961.493042,1082.092651 959.651978,1089.667725 955.937744,1096.465942 
	C952.003967,1103.666382 949.036682,1111.422119 943.988831,1117.991455 
	C936.345459,1127.938477 927.473022,1136.457031 915.447205,1140.855713 
	C914.028687,1141.374512 913.305115,1142.152222 912.533203,1143.029297 
	C910.109497,1145.783081 907.793640,1148.635132 905.511902,1151.509399 
	C903.522522,1154.015503 901.283020,1156.429565 901.475525,1160.001343 
	C901.492981,1160.324707 901.194641,1160.684448 900.995972,1160.997437 
	C896.453613,1168.153076 899.771423,1176.472290 897.623840,1184.035156 
	C896.904297,1186.569214 899.680603,1188.902100 899.942200,1191.505859 
	C900.797546,1200.020142 905.453613,1206.653320 909.906433,1213.560303 
	C914.578064,1220.806763 921.606873,1225.446777 928.220886,1230.192139 
	C932.184326,1233.035767 938.331177,1232.843018 943.500793,1233.996338 
	C946.579651,1234.683105 949.666687,1235.333374 952.750000,1236.000000 
"/>
<path fill="none" opacity="1.000000" stroke="#000000" stroke-linecap="round" stroke-linejoin="round" stroke-width="10.000000"
	d="
M1097.500000,865.000000 
	C1101.837036,868.655701 1107.519409,868.351440 1112.542725,869.857483 
	C1127.471191,874.333069 1141.727905,880.319214 1155.453003,887.588623 
	C1158.219238,889.053772 1161.248291,890.852783 1162.000000,894.500000 
"/>
<path fill="none" opacity="1.000000" stroke="#000000" stroke-linecap="round" stroke-linejoin="round" stroke-width="10.000000"
	d="
M1308.750000,1154.500000 
	C1310.110596,1159.881104 1307.168945,1164.505615 1305.316284,1168.922974 
	C1297.182983,1188.316284 1285.825562,1205.877075 1272.973999,1222.479858 
	C1272.849121,1222.641235 1272.333374,1222.500000 1272.000000,1222.500000 
"/>
<path fill="none" opacity="1.000000" stroke="#000000" stroke-linecap="round" stroke-linejoin="round" stroke-width="10.000000"
	d="
M1239.500000,1097.000000 
	C1229.607056,1100.668457 1220.943970,1106.629150 1212.044800,1112.073242 
	C1198.921021,1120.101562 1186.626099,1129.310181 1175.500000,1140.000000 
"/>
<path fill="none" opacity="1.000000" stroke="#000000" stroke-linecap="round" stroke-linejoin="round" stroke-width="11.000000"
	d="
M897.500000,1168.000000 
	C876.575745,1163.367554 855.506042,1160.426025 833.998657,1162.485840 
	C832.842529,1162.596436 831.666687,1162.500000 830.500000,1162.500000 
"/>
<path fill="none" opacity="1.000000" stroke="#000000" stroke-linecap="round" stroke-linejoin="round" stroke-width="11.000000"
	d="
M1240.000122,1075.500000 
	C1240.166748,1076.166626 1240.648315,1076.949585 1240.451782,1077.482178 
	C1238.248169,1083.451660 1239.228760,1089.567261 1240.187256,1095.469604 
	C1240.746338,1098.912720 1243.119141,1102.067383 1246.493774,1104.010864 
	C1252.796997,1107.640869 1252.885742,1108.363037 1249.525635,1115.012939 
	C1245.483032,1123.013184 1239.686401,1129.740601 1233.940430,1136.448975 
	C1226.410156,1145.240356 1218.264893,1153.476562 1208.987427,1160.483398 
	C1205.982544,1162.752808 1202.639648,1164.445923 1199.000000,1165.500000 
"/>
<path fill="none" opacity="1.000000" stroke="#000000" stroke-linecap="round" stroke-linejoin="round" stroke-width="10.000000"
	d="
M1305.500000,1049.500000 
	C1290.298706,1038.770996 1274.301514,1029.286743 1258.471924,1019.545654 
	C1255.487427,1017.708984 1252.124268,1016.560852 1248.500000,1018.000000 
"/>
<path fill="none" opacity="1.000000" stroke="#000000" stroke-linecap="round" stroke-linejoin="round" stroke-width="11.000000"
	d="
M1004.000000,1248.000000 
	C1005.237061,1252.163696 1008.900452,1254.485962 1011.598938,1257.408691 
	C1021.617981,1268.260498 1027.846924,1281.063354 1031.918701,1295.023682 
	C1032.890747,1298.356689 1034.312378,1301.407349 1035.750000,1304.500000 
"/>
<path fill="none" opacity="1.000000" stroke="#000000" stroke-linecap="round" stroke-linejoin="round" stroke-width="10.000000"
	d="
M1082.500000,831.000000 
	C1083.689941,838.125183 1085.786499,845.246887 1084.875366,852.484314 
	C1084.053589,859.011719 1082.438721,865.533203 1077.489258,870.489197 
	C1074.469360,873.513184 1071.854492,877.198425 1067.000000,877.500000 
"/>
<path fill="none" opacity="1.000000" stroke="#000000" stroke-linecap="round" stroke-linejoin="round" stroke-width="10.000000"
	d="
M914.000000,1221.000000 
	C903.937927,1231.480469 895.658813,1243.529175 885.086731,1253.591064 
	C881.856323,1256.665771 878.638855,1259.827759 875.594238,1263.088013 
	C872.541199,1266.357300 869.581848,1267.471313 865.478149,1265.546631 
	C864.457703,1265.068115 863.166687,1265.166626 862.000000,1265.000000 
"/>
<path fill="none" opacity="1.000000" stroke="#000000" stroke-linecap="round" stroke-linejoin="round" stroke-width="10.000000"
	d="
M1244.500000,1104.000000 
	C1231.681885,1116.852539 1218.671021,1129.516113 1206.479248,1142.981201 
	C1205.141968,1144.458130 1203.598145,1145.715820 1204.000000,1148.000000 
"/>
<path fill="none" opacity="1.000000" stroke="#000000" stroke-linecap="round" stroke-linejoin="round" stroke-width="13.000000"
	d="
M525.000000,1563.500000 
	C539.333313,1565.901001 553.666687,1565.901001 568.000000,1563.500000 
"/>
<path fill="none" opacity="1.000000" stroke="#000000" stroke-linecap="round" stroke-linejoin="round" stroke-width="11.000000"
	d="
M1005.000000,1008.750000 
	C1001.541931,1005.765808 997.042542,1005.346680 992.992554,1005.173950 
	C982.681580,1004.734375 972.333313,1005.166687 962.000000,1005.250000 
"/>
<path fill="none" opacity="1.000000" stroke="#000000" stroke-linecap="round" stroke-linejoin="round" stroke-width="14.000000"
	d="
M751.500000,1460.000000 
	C748.466553,1457.967285 745.099731,1457.437988 741.499756,1457.468750 
	C731.167175,1457.557373 720.833313,1457.500000 710.500000,1457.500000 
"/>
<path fill="none" opacity="1.000000" stroke="#000000" stroke-linecap="round" stroke-linejoin="round" stroke-width="10.000000"
	d="
M1077.000000,1231.500000 
	C1076.809448,1238.532471 1071.967163,1243.126587 1067.922729,1247.935059 
	C1061.626953,1255.420288 1054.771973,1262.410034 1047.616699,1269.124390 
	C1045.301025,1271.297363 1043.117676,1271.462891 1040.500000,1271.500000 
"/>
<path fill="none" opacity="1.000000" stroke="#000000" stroke-linecap="round" stroke-linejoin="round" stroke-width="11.000000"
	d="
M987.500000,1033.500000 
	C979.295105,1028.497803 970.338989,1029.952759 961.501038,1030.516357 
	C957.828003,1030.750366 954.166687,1031.166626 950.500000,1031.500000 
"/>
<path fill="none" opacity="1.000000" stroke="#000000" stroke-linecap="round" stroke-linejoin="round" stroke-width="11.000000"
	d="
M897.000000,1184.500000 
	C888.153748,1185.196411 879.284790,1185.539551 870.485901,1186.909546 
	C867.254089,1187.412720 864.167664,1188.337891 861.000000,1189.000000 
"/>
<path fill="none" opacity="1.000000" stroke="#000000" stroke-linecap="round" stroke-linejoin="round" stroke-width="13.000000"
	d="
M1183.000000,1525.000000 
	C1194.666626,1525.000000 1206.333374,1525.000000 1218.000000,1525.000000 
"/>
<path fill="none" opacity="1.000000" stroke="#000000" stroke-linecap="round" stroke-linejoin="round" stroke-width="10.000000"
	d="
M902.000000,1203.000000 
	C892.489990,1207.557495 883.328064,1212.734009 874.516602,1218.525269 
	C874.054321,1218.829102 873.833313,1219.500000 873.499939,1220.000000 
"/>
<path fill="none" opacity="1.000000" stroke="#000000" stroke-linecap="round" stroke-linejoin="round" stroke-width="11.000000"
	d="
M945.000000,1054.500000 
	C949.634338,1055.571411 954.333984,1054.855103 959.000793,1054.966675 
	C963.808777,1055.081787 968.420227,1055.712402 972.500000,1058.500000 
"/>
<path fill="none" opacity="1.000000" stroke="#000000" stroke-linecap="round" stroke-linejoin="round" stroke-width="10.000000"
	d="
M1051.000000,1230.500000 
	C1050.355957,1234.068115 1048.700806,1237.007446 1046.030151,1239.531860 
	C1041.649048,1243.673096 1037.300171,1247.811279 1032.606201,1251.630615 
	C1030.238281,1253.557373 1028.046997,1253.581055 1025.500000,1253.500000 
"/>
<path fill="none" opacity="1.000000" stroke="#000000" stroke-linecap="round" stroke-linejoin="round" stroke-width="10.000000"
	d="
M1061.500000,927.750000 
	C1066.666626,929.000000 1071.929321,929.962158 1076.953979,931.637939 
	C1079.042236,932.334351 1081.209961,933.836060 1082.500000,936.000000 
"/>
<path fill="none" opacity="1.000000" stroke="#000000" stroke-linecap="round" stroke-linejoin="round" stroke-width="17.000000"
	d="
M1556.000000,1457.000000 
	C1547.000000,1459.403687 1547.000000,1459.403687 1547.000000,1468.500000 
	C1547.000000,1506.166626 1547.007202,1543.833374 1546.980469,1581.500000 
	C1546.979004,1583.501221 1546.726807,1585.525269 1546.621216,1587.506470 
	C1546.242188,1594.620850 1546.629150,1595.558472 1553.011719,1596.411987 
	C1562.746216,1597.713623 1572.454712,1597.380737 1582.011963,1594.540283 
	C1590.876831,1591.905640 1594.545776,1585.105469 1596.452881,1576.988892 
	C1598.960815,1566.314697 1598.425659,1555.332275 1598.859009,1544.494385 
	C1599.431274,1530.183838 1599.163452,1515.830688 1598.932983,1501.501099 
	C1598.812256,1493.994995 1598.905762,1486.300293 1597.305786,1479.042847 
	C1594.262573,1465.238403 1588.457520,1458.271118 1571.499634,1457.508789 
	C1566.502197,1457.284180 1561.500000,1457.166626 1556.500000,1457.000000 
"/>
<path fill="none" opacity="1.000000" stroke="#000000" stroke-linecap="round" stroke-linejoin="round" stroke-width="17.000000"
	d="
M1374.000000,1455.500000 
	C1371.833374,1456.000000 1369.595703,1456.299072 1367.512329,1457.034790 
	C1358.346069,1460.271484 1354.279907,1467.458984 1352.464111,1476.492798 
	C1351.031982,1483.617920 1351.015015,1490.791870 1350.974731,1497.999878 
	C1350.892578,1512.666992 1350.082275,1527.357300 1350.682495,1541.992554 
	C1351.174438,1553.989136 1349.880615,1566.074951 1352.442261,1578.012451 
	C1355.125366,1590.516479 1361.140259,1596.477295 1372.023071,1597.811646 
	C1385.385620,1599.449951 1395.520630,1595.953613 1400.351807,1584.935059 
	C1403.625122,1577.469482 1403.931274,1569.134644 1403.965820,1560.999878 
	C1404.063721,1538.000244 1404.072510,1514.999634 1403.952026,1492.000244 
	C1403.919556,1485.797607 1403.656860,1479.499146 1401.933594,1473.519165 
	C1397.680908,1458.761108 1390.544556,1456.986694 1378.497437,1455.521606 
	C1377.183472,1455.361694 1375.833374,1455.500000 1374.500000,1455.500000 
"/>
<path fill="none" opacity="1.000000" stroke="#000000" stroke-linecap="round" stroke-linejoin="round" stroke-width="17.000000"
	d="
M961.500000,1455.500000 
	C946.540955,1460.322998 941.429993,1467.268433 940.411865,1482.994263 
	C939.990234,1489.508545 940.107544,1495.999268 940.014893,1502.500244 
	C939.801331,1517.499512 939.139832,1532.518677 939.671997,1547.493896 
	C940.075012,1558.834229 939.309204,1570.240601 942.282837,1581.557129 
	C944.643250,1590.539673 954.332336,1597.889893 963.503662,1597.627808 
	C971.279602,1597.405762 978.612671,1597.168701 984.552551,1591.051025 
	C990.069580,1585.368774 991.368652,1578.324219 991.973145,1570.997803 
	C994.061218,1545.692383 992.710022,1520.333130 992.911499,1494.999268 
	C992.975586,1486.941528 992.331665,1478.864502 990.048523,1470.985962 
	C987.304016,1461.515137 978.950134,1455.671875 968.499939,1455.505005 
	C966.333801,1455.470459 964.166687,1455.500000 962.000000,1455.500000 
"/>
</svg>