<svg version="1.1" id="Layer_1" xmlns="http://www.w3.org/2000/svg" xmlns:xlink="http://www.w3.org/1999/xlink" x="0px" y="0px"
	 width="100%" viewBox="0 0 64 64" enable-background="new 0 0 64 64" xml:space="preserve">
<path fill="#FEFEFE" opacity="1.000000" stroke="none" 
	d="
M43.000290,65.000000 
	C28.666895,65.000000 14.833565,65.000000 1.000176,65.000000 
	C1.000118,43.666752 1.000118,22.333500 1.000059,1.000188 
	C22.333244,1.000125 43.666489,1.000125 64.999802,1.000063 
	C64.999863,22.333239 64.999863,43.666477 64.999931,64.999863 
	C57.833450,65.000000 50.666901,65.000000 43.000290,65.000000 
M31.689709,40.006348 
	C32.461845,40.004555 33.233982,40.002762 34.073883,40.684185 
	C35.531693,45.295776 38.380955,41.256561 40.493752,41.519272 
	C43.886669,41.941158 44.646797,39.807846 43.189705,36.414410 
	C43.493164,35.946152 43.796623,35.477890 44.777512,34.925404 
	C45.829983,33.937752 46.882454,32.950096 47.959839,31.189075 
	C46.330715,27.500986 45.075935,23.584042 42.991394,20.174376 
	C39.132729,13.862778 32.102016,12.047469 24.446091,15.064623 
	C24.139973,15.495692 23.833855,15.926762 23.527735,16.357830 
	C24.031418,16.218214 24.535103,16.078600 25.823282,15.840280 
	C27.242910,15.562562 28.696489,14.958964 30.072252,15.102296 
	C31.350063,15.235420 33.425411,15.981590 33.592709,16.782896 
	C33.939972,18.446190 33.255314,20.324928 32.198757,22.029507 
	C27.194574,21.783985 24.587324,24.281080 23.208029,29.093166 
	C21.796598,29.082224 20.385168,29.071281 18.485670,28.716114 
	C18.319761,28.153831 18.153851,27.591549 17.982025,26.463923 
	C17.971094,26.275780 17.960165,26.087639 17.815426,25.259323 
	C17.603027,25.035395 17.306532,24.586306 17.193537,24.628510 
	C16.809019,24.772131 16.275122,25.024017 16.176296,25.349394 
	C14.135980,32.066963 18.934563,39.957634 27.423523,43.654720 
	C29.035982,43.654720 30.648443,43.654720 32.517918,43.654720 
	C31.906916,42.267849 31.411457,41.143238 31.689709,40.006348 
M17.529043,51.010696 
	C19.798826,51.117470 22.068609,51.224243 24.286194,51.328560 
	C24.659716,50.124844 25.028839,48.935299 25.568218,47.197083 
	C20.747675,46.939823 16.062063,46.689762 10.949006,46.416889 
	C11.069044,48.328396 11.166696,49.883396 11.264777,51.445263 
	C13.397383,51.278728 15.034159,51.150913 17.529043,51.010696 
M42.200153,47.146236 
	C39.770458,49.638931 41.309185,51.078579 43.739895,51.546497 
	C46.229084,52.025677 48.875805,52.034458 51.408241,51.786388 
	C52.581375,51.671467 53.646935,50.458416 54.761265,49.743214 
	C53.651310,48.835457 52.629341,47.319328 51.413525,47.143482 
	C48.675640,46.747498 45.841740,47.015377 42.200153,47.146236 
M27.250645,47.548985 
	C27.416128,47.569450 27.581610,47.589916 27.747093,47.610386 
	C27.675896,47.506371 27.604696,47.402359 27.250645,47.548985 
M28.468651,49.704426 
	C28.561415,49.622707 28.717478,49.548973 28.729082,49.457012 
	C28.740618,49.365620 28.606907,49.255898 28.536890,49.154213 
	C28.443737,49.235806 28.350586,49.317398 28.468651,49.704426 
M18.411018,22.482628 
	C18.411018,22.482628 18.523134,22.415407 18.411018,22.482628 
z"/>
<path fill="#DADADA" opacity="1.000000" stroke="none" 
	d="
M25.026014,15.000537 
	C32.102016,12.047469 39.132729,13.862778 42.991394,20.174376 
	C45.075935,23.584042 46.330715,27.500986 47.588005,31.565819 
	C45.208656,30.879784 43.201138,29.817005 40.264801,28.262510 
	C41.955643,31.237080 43.027863,33.123352 44.100082,35.009628 
	C43.796623,35.477890 43.493164,35.946152 42.787186,36.559700 
	C41.648945,36.514420 40.913223,36.323845 40.138367,35.749817 
	C40.041878,34.857269 39.984524,34.348179 39.735027,33.611404 
	C38.696529,33.599682 37.850178,33.815639 37.002335,34.014030 
	C37.000843,33.996460 37.029160,34.017578 36.729027,34.028320 
	C35.970036,34.368233 35.511173,34.697399 34.817070,34.944813 
	C34.277691,34.691864 34.069176,34.441135 33.952370,33.793076 
	C33.619976,32.975441 33.291492,32.475613 32.988594,31.594139 
	C32.997707,28.847246 32.981239,26.481995 32.974457,23.782555 
	C32.987717,23.003944 32.991291,22.559523 32.994869,22.115099 
	C33.255314,20.324928 33.939972,18.446190 33.592709,16.782896 
	C33.425411,15.981590 31.350063,15.235420 30.072252,15.102296 
	C28.696489,14.958964 27.242910,15.562562 25.428408,15.655341 
	C25.033533,15.470403 25.026014,15.000537 25.026014,15.000537 
M36.412579,30.482679 
	C36.412579,30.482679 36.523140,30.416710 36.412579,30.482679 
z"/>
<path fill="#D2D2D1" opacity="1.000000" stroke="none" 
	d="
M17.099989,51.016899 
	C15.034159,51.150913 13.397383,51.278728 11.264777,51.445263 
	C11.166696,49.883396 11.069044,48.328396 10.949006,46.416889 
	C16.062063,46.689762 20.747675,46.939823 25.568218,47.197083 
	C25.028839,48.935299 24.659716,50.124844 24.286194,51.328560 
	C22.068609,51.224243 19.798826,51.117470 17.099989,51.016899 
z"/>
<path fill="#D9D9D9" opacity="1.000000" stroke="none" 
	d="
M42.623535,47.079666 
	C45.841740,47.015377 48.675640,46.747498 51.413525,47.143482 
	C52.629341,47.319328 53.651310,48.835457 54.761261,49.743210 
	C53.646935,50.458416 52.581375,51.671467 51.408241,51.786388 
	C48.875805,52.034458 46.229084,52.025677 43.739895,51.546497 
	C41.309185,51.078579 39.770458,49.638931 42.623535,47.079666 
z"/>
<path fill="#D9D9D9" opacity="1.000000" stroke="none" 
	d="
M17.987940,27.029266 
	C18.153851,27.591549 18.319761,28.153831 18.739750,29.270559 
	C19.529266,34.728127 21.652960,38.247429 26.978485,39.393585 
	C26.965704,40.904205 26.946865,42.003555 26.928026,43.102905 
	C18.934563,39.957634 14.135980,32.066963 16.176296,25.349394 
	C16.275122,25.024017 16.809019,24.772131 17.193537,24.628510 
	C17.306532,24.586306 17.603027,25.035395 17.714705,25.693497 
	C17.738636,26.428202 17.863287,26.728733 17.987940,27.029266 
z"/>
<path fill="#F4F4F4" opacity="1.000000" stroke="none" 
	d="
M40.177502,36.133266 
	C40.913223,36.323845 41.648945,36.514420 42.657501,36.807518 
	C44.646797,39.807846 43.886669,41.941158 40.493752,41.519272 
	C38.380955,41.256561 35.531693,45.295776 34.325268,40.204048 
	C35.044231,38.832867 35.511810,37.941814 36.354599,37.037586 
	C37.879036,36.727360 39.028271,36.430313 40.177502,36.133266 
z"/>
<path fill="#E4E4E4" opacity="1.000000" stroke="none" 
	d="
M26.972425,38.982315 
	C21.652960,38.247429 19.529266,34.728127 18.983784,29.442673 
	C20.385168,29.071281 21.796598,29.082224 23.621693,29.277897 
	C24.035358,29.462626 24.009281,29.779192 24.014511,30.112326 
	C24.355349,30.967789 24.690960,31.490118 25.009880,32.008377 
	C24.993187,32.004307 24.998737,31.970392 25.012764,32.276382 
	C25.359606,33.057072 25.692423,33.531769 26.014101,34.007996 
	C26.002964,34.009525 26.002144,33.987320 26.003769,34.236340 
	C26.005396,34.485359 26.014687,34.982410 25.734909,35.008389 
	C25.960897,36.350349 26.466661,37.666332 26.972425,38.982315 
z"/>
<path fill="#D9D9D9" opacity="1.000000" stroke="none" 
	d="
M24.009281,29.779192 
	C24.009281,29.779192 24.035358,29.462626 24.043808,29.305916 
	C24.587324,24.281080 27.194574,21.783985 32.596809,22.072304 
	C32.991291,22.559523 32.987717,23.003944 32.583923,23.749268 
	C27.328094,24.878574 25.857521,27.103674 27.614948,30.958641 
	C28.083332,31.986053 28.542610,33.017616 28.630566,34.026482 
	C27.504089,33.999569 26.753117,33.993443 26.002144,33.987320 
	C26.002144,33.987320 26.002964,34.009525 26.010874,33.701401 
	C25.678768,32.918983 25.338753,32.444687 24.998737,31.970392 
	C24.998737,31.970392 24.993187,32.004307 24.979534,31.690784 
	C24.647015,30.844572 24.328148,30.311882 24.009281,29.779192 
z"/>
<path fill="#C8C8C8" opacity="1.000000" stroke="none" 
	d="
M26.978485,39.393585 
	C26.466661,37.666332 25.960897,36.350349 26.049244,35.021149 
	C27.063519,35.023464 27.483683,35.038990 27.974297,35.367893 
	C28.690125,36.138592 29.335505,36.595913 29.970402,37.386124 
	C30.278610,38.485554 30.597303,39.252090 30.915997,40.018631 
	C31.411457,41.143238 31.906916,42.267849 32.517918,43.654720 
	C30.648443,43.654720 29.035982,43.654720 27.175774,43.378815 
	C26.946865,42.003555 26.965704,40.904205 26.978485,39.393585 
z"/>
<path fill="#FDFDFD" opacity="1.000000" stroke="none" 
	d="
M31.302853,40.012489 
	C30.597303,39.252090 30.278610,38.485554 29.882298,37.113441 
	C29.536556,36.005100 29.268435,35.502327 29.000158,34.999779 
	C29.000004,35.000000 29.002699,34.997295 29.333244,34.998848 
	C30.445223,34.710056 31.226660,34.419712 32.331772,34.086533 
	C33.089062,34.066093 33.522675,34.088482 33.956284,34.110870 
	C34.069176,34.441135 34.277691,34.691864 35.040436,34.938267 
	C35.499046,35.013474 35.946640,34.994404 35.920189,35.337212 
	C35.922291,36.136932 35.950840,36.593849 35.979389,37.050766 
	C35.511810,37.941814 35.044231,38.832867 34.291386,39.862442 
	C33.233982,40.002762 32.461845,40.004555 31.302853,40.012489 
z"/>
<path fill="#FAFAFA" opacity="1.000000" stroke="none" 
	d="
M44.438797,34.967514 
	C43.027863,33.123352 41.955643,31.237080 40.264801,28.262510 
	C43.201138,29.817005 45.208656,30.879784 47.575546,31.952503 
	C46.882454,32.950096 45.829983,33.937752 44.438797,34.967514 
z"/>
<path fill="#FDFDFD" opacity="1.000000" stroke="none" 
	d="
M24.736053,15.032579 
	C25.026014,15.000537 25.033533,15.470403 25.036160,15.704694 
	C24.535103,16.078600 24.031418,16.218214 23.527737,16.357830 
	C23.833855,15.926762 24.139973,15.495692 24.736053,15.032579 
z"/>
<path fill="#C8C8C8" opacity="1.000000" stroke="none" 
	d="
M27.392071,47.423664 
	C27.604696,47.402359 27.675896,47.506371 27.747093,47.610386 
	C27.581610,47.589916 27.416128,47.569450 27.392071,47.423664 
z"/>
<path fill="#FDFDFD" opacity="1.000000" stroke="none" 
	d="
M17.984982,26.746593 
	C17.863287,26.728733 17.738636,26.428202 17.781609,26.013582 
	C17.960165,26.087639 17.971094,26.275780 17.984982,26.746593 
z"/>
<path fill="#C8C8C8" opacity="1.000000" stroke="none" 
	d="
M28.363041,49.551708 
	C28.350586,49.317398 28.443737,49.235806 28.536892,49.154213 
	C28.606907,49.255898 28.740618,49.365620 28.729082,49.457012 
	C28.717478,49.548973 28.561415,49.622707 28.363041,49.551708 
z"/>
<path fill="#FDFDFD" opacity="1.000000" stroke="none" 
	d="
M18.467075,22.449017 
	C18.523134,22.415407 18.411018,22.482628 18.467075,22.449017 
z"/>
<path fill="#FAFAFA" opacity="1.000000" stroke="none" 
	d="
M32.008095,34.129364 
	C31.226660,34.419712 30.445223,34.710056 29.331797,34.761398 
	C28.999805,34.522388 29.006069,34.047272 29.006069,34.047272 
	C28.542610,33.017616 28.083332,31.986053 27.614948,30.958641 
	C25.857521,27.103674 27.328094,24.878574 32.574242,24.083454 
	C32.981239,26.481995 32.997707,28.847246 32.688377,31.637016 
	C32.244419,32.750813 32.126259,33.440086 32.008095,34.129364 
z"/>
<path fill="#C8C8C8" opacity="1.000000" stroke="none" 
	d="
M36.354599,37.037586 
	C35.950840,36.593849 35.922291,36.136932 36.167747,35.255699 
	C36.637554,34.560112 36.833355,34.288845 37.029160,34.017578 
	C37.029160,34.017578 37.000843,33.996460 37.370270,34.025963 
	C38.468853,33.983337 39.198013,33.911209 39.927170,33.839085 
	C39.984524,34.348179 40.041878,34.857269 40.138367,35.749817 
	C39.028271,36.430313 37.879036,36.727360 36.354599,37.037586 
z"/>
<path fill="#D9D9D9" opacity="1.000000" stroke="none" 
	d="
M32.331772,34.086533 
	C32.126259,33.440086 32.244419,32.750813 32.662796,32.018658 
	C33.291492,32.475613 33.619976,32.975441 33.952370,33.793072 
	C33.522675,34.088482 33.089062,34.066093 32.331772,34.086533 
z"/>
<path fill="#F4F4F4" opacity="1.000000" stroke="none" 
	d="
M39.735031,33.611404 
	C39.198013,33.911209 38.468853,33.983337 37.371758,34.043530 
	C37.850178,33.815639 38.696529,33.599682 39.735031,33.611404 
z"/>
<path fill="#F4F4F4" opacity="1.000000" stroke="none" 
	d="
M36.729027,34.028320 
	C36.833355,34.288845 36.637554,34.560112 36.194199,34.912891 
	C35.946640,34.994404 35.499046,35.013474 35.275681,35.020020 
	C35.511173,34.697399 35.970036,34.368233 36.729027,34.028320 
z"/>
<path fill="#D9D9D9" opacity="1.000000" stroke="none" 
	d="
M36.467857,30.449696 
	C36.523140,30.416710 36.412579,30.482679 36.467857,30.449696 
z"/>
<path fill="#FDFDFD" opacity="1.000000" stroke="none" 
	d="
M28.630566,34.026482 
	C29.006069,34.047272 28.999805,34.522388 29.001251,34.759842 
	C29.002699,34.997295 29.000004,35.000000 28.725735,35.007435 
	C28.268927,35.028088 28.086386,35.041302 27.903847,35.054520 
	C27.483683,35.038990 27.063519,35.023464 26.329021,34.995171 
	C26.014687,34.982410 26.005396,34.485359 26.003769,34.236340 
	C26.753117,33.993443 27.504089,33.999569 28.630566,34.026482 
z"/>
<path fill="#FDFDFD" opacity="1.000000" stroke="none" 
	d="
M25.012764,32.276382 
	C25.338753,32.444687 25.678768,32.918983 26.022011,33.699875 
	C25.692423,33.531769 25.359606,33.057072 25.012764,32.276382 
z"/>
<path fill="#FDFDFD" opacity="1.000000" stroke="none" 
	d="
M24.014511,30.112326 
	C24.328148,30.311882 24.647015,30.844572 24.996225,31.694855 
	C24.690960,31.490118 24.355349,30.967789 24.014511,30.112326 
z"/>
<path fill="#F4F4F4" opacity="1.000000" stroke="none" 
	d="
M27.974297,35.367893 
	C28.086386,35.041302 28.268927,35.028088 28.725889,35.007210 
	C29.268435,35.502327 29.536556,36.005100 29.892782,36.780556 
	C29.335505,36.595913 28.690125,36.138592 27.974297,35.367893 
z"/>
</svg>