<svg version="1.1" id="Layer_1" xmlns="http://www.w3.org/2000/svg" xmlns:xlink="http://www.w3.org/1999/xlink" x="0px" y="0px"
	 width="100%" viewBox="0 0 512 529" enable-background="new 0 0 512 529" xml:space="preserve">
<path fill="#1ED760" opacity="1.000000" stroke="none" 
	d="
M0.999997,298.000000 
	C1.000000,276.645782 1.000000,255.291550 1.396518,233.648865 
	C2.191249,232.518784 2.793264,231.714630 2.956082,230.829681 
	C4.549570,222.168671 5.716482,213.413269 7.680064,204.839371 
	C12.691383,182.957687 20.922676,162.313248 31.673037,142.570526 
	C41.511826,124.501900 53.094681,107.652214 67.096046,92.722191 
	C77.001076,82.160187 88.154854,72.696815 99.262154,63.350227 
	C120.629471,45.370029 145.183563,32.911057 171.279861,23.342720 
	C193.374039,15.241771 216.312637,10.495945 239.678116,9.293115 
	C255.968094,8.454525 272.503937,9.394605 288.732758,11.257575 
	C303.243683,12.923340 317.737305,16.061443 331.792877,20.100677 
	C362.407227,28.898500 390.052551,43.623692 415.180267,63.405571 
	C431.258301,76.063034 445.771576,90.194351 458.402832,106.093765 
	C470.782288,121.676247 481.175873,138.630280 489.527588,156.854324 
	C500.350525,180.470810 507.896423,204.925842 511.081635,230.722977 
	C511.183502,231.548370 512.336792,232.243927 513.000000,233.000000 
	C513.000000,254.354233 513.000000,275.708466 512.603760,297.350464 
	C511.155609,302.513123 509.930054,307.357910 509.079834,312.267670 
	C503.281281,345.752930 490.674774,376.599915 472.298859,405.013611 
	C461.157104,422.241425 448.422668,438.349976 432.685303,451.738068 
	C422.438416,460.455322 412.259583,469.351685 401.306030,477.118103 
	C379.283997,492.732422 355.029388,503.904541 329.076385,511.523254 
	C305.757507,518.368652 281.938446,521.390137 257.752991,521.929443 
	C251.497711,522.068848 245.213959,521.450989 238.959457,520.970520 
	C231.581390,520.403748 224.035080,520.408997 216.890244,518.750732 
	C200.422516,514.928772 183.641937,511.583344 167.942917,505.557495 
	C151.127853,499.103271 134.899124,490.662628 119.337227,481.518555 
	C99.869743,470.079559 82.645584,455.449982 67.863747,438.255219 
	C59.880203,428.968475 52.103771,419.448181 44.946636,409.519501 
	C34.006248,394.342499 25.538433,377.745697 18.688929,360.318542 
	C11.075706,340.948303 5.500733,321.065002 2.919767,300.373383 
	C2.812798,299.515778 1.663623,298.788177 0.999997,298.000000 
M354.819885,160.703842 
	C319.248901,150.612396 282.909241,145.269791 246.037949,143.539780 
	C196.504150,141.215622 147.495087,144.579819 99.516075,158.089478 
	C84.611504,162.286240 77.000671,175.506866 81.025284,190.134995 
	C84.691566,203.460724 97.658257,210.311142 112.364166,206.188995 
	C143.181671,197.550674 174.604843,193.430588 206.546326,192.730362 
	C257.538483,191.612518 307.592773,197.396988 356.324707,212.945724 
	C374.781403,218.834641 392.220154,226.968964 409.178986,236.346283 
	C425.004761,245.097107 443.457794,234.763885 444.590454,216.841858 
	C445.310730,205.444031 440.340118,197.127029 430.262329,191.475128 
	C406.614807,178.212967 381.658875,168.242996 354.819885,160.703842 
M406.809204,287.965851 
	C403.657043,284.626373 400.838226,280.859833 397.259644,278.066681 
	C393.626495,275.230988 389.306610,273.235260 385.179535,271.078278 
	C330.733398,242.622696 272.475800,230.694519 211.380966,230.857300 
	C178.028580,230.946152 145.337891,235.436600 113.375786,244.938126 
	C100.617081,248.730972 94.565880,260.028625 98.316818,272.156647 
	C101.703239,283.106049 112.642632,288.474670 124.917122,284.930298 
	C145.298019,279.045105 166.044662,275.290192 187.193008,273.719391 
	C241.542969,269.682434 294.166718,277.080383 344.532318,298.240692 
	C356.766205,303.380554 368.282715,310.206604 380.251160,316.005310 
	C392.352722,321.868530 405.854828,315.165558 408.087738,301.900513 
	C408.798920,297.675568 407.469238,293.107086 406.809204,287.965851 
M370.599640,355.887817 
	C368.529785,354.497650 366.522705,353.001373 364.380310,351.733765 
	C344.494171,339.967804 323.335052,331.153168 301.044495,325.188934 
	C240.794006,309.067749 180.606873,312.978577 120.554024,326.399414 
	C111.087196,328.515106 106.175049,337.487732 108.329269,346.824036 
	C110.472984,356.114868 118.435707,360.734833 128.590317,359.011505 
	C147.929169,355.729584 167.219833,351.921326 186.686172,349.689362 
	C216.299500,346.293854 245.888611,347.603333 275.189667,353.484344 
	C301.697876,358.804840 326.527496,368.420654 349.934814,381.995758 
	C353.968689,384.335266 359.336639,385.544708 363.999756,385.332184 
	C369.803986,385.067627 374.127106,380.934723 375.752197,375.177216 
	C377.721619,368.199768 376.793121,361.620392 370.599640,355.887817 
z"/>
<path fill="#000000" opacity="1.000000" stroke="none" 
	d="
M0.999997,298.468658 
	C1.663623,298.788177 2.812798,299.515778 2.919767,300.373383 
	C5.500733,321.065002 11.075706,340.948303 18.688929,360.318542 
	C25.538433,377.745697 34.006248,394.342499 44.946636,409.519501 
	C52.103771,419.448181 59.880203,428.968475 67.863747,438.255219 
	C82.645584,455.449982 99.869743,470.079559 119.337227,481.518555 
	C134.899124,490.662628 151.127853,499.103271 167.942917,505.557495 
	C183.641937,511.583344 200.422516,514.928772 216.890244,518.750732 
	C224.035080,520.408997 231.581390,520.403748 238.959457,520.970520 
	C245.213959,521.450989 251.497711,522.068848 257.752991,521.929443 
	C281.938446,521.390137 305.757507,518.368652 329.076385,511.523254 
	C355.029388,503.904541 379.283997,492.732422 401.306030,477.118103 
	C412.259583,469.351685 422.438416,460.455322 432.685303,451.738068 
	C448.422668,438.349976 461.157104,422.241425 472.298859,405.013611 
	C490.674774,376.599915 503.281281,345.752930 509.079834,312.267670 
	C509.930054,307.357910 511.155609,302.513123 512.603760,297.819153 
	C513.000000,375.298676 513.000000,452.597321 513.000000,529.947998 
	C342.444550,529.947998 171.889053,529.947998 1.000000,529.947998 
	C1.000000,452.979431 1.000000,375.958374 0.999997,298.468658 
z"/>
<path fill="#000000" opacity="1.000000" stroke="none" 
	d="
M513.000000,232.531342 
	C512.336792,232.243927 511.183502,231.548370 511.081635,230.722977 
	C507.896423,204.925842 500.350525,180.470810 489.527588,156.854324 
	C481.175873,138.630280 470.782288,121.676247 458.402832,106.093765 
	C445.771576,90.194351 431.258301,76.063034 415.180267,63.405571 
	C390.052551,43.623692 362.407227,28.898500 331.792877,20.100677 
	C317.737305,16.061443 303.243683,12.923340 288.732758,11.257575 
	C272.503937,9.394605 255.968094,8.454525 239.678116,9.293115 
	C216.312637,10.495945 193.374039,15.241771 171.279861,23.342720 
	C145.183563,32.911057 120.629471,45.370029 99.262154,63.350227 
	C88.154854,72.696815 77.001076,82.160187 67.096046,92.722191 
	C53.094681,107.652214 41.511826,124.501900 31.673037,142.570526 
	C20.922676,162.313248 12.691383,182.957687 7.680064,204.839371 
	C5.716482,213.413269 4.549570,222.168671 2.956082,230.829681 
	C2.793264,231.714630 2.191249,232.518784 1.396518,233.180206 
	C1.000000,155.701324 1.000000,78.402641 1.000000,1.051980 
	C171.555527,1.051980 342.111084,1.051980 513.000000,1.051980 
	C513.000000,78.020576 513.000000,155.041626 513.000000,232.531342 
z"/>
<path fill="#000101" opacity="1.000000" stroke="none" 
	d="
M355.210266,160.811646 
	C381.658875,168.242996 406.614807,178.212967 430.262329,191.475128 
	C440.340118,197.127029 445.310730,205.444031 444.590454,216.841858 
	C443.457794,234.763885 425.004761,245.097107 409.178986,236.346283 
	C392.220154,226.968964 374.781403,218.834641 356.324707,212.945724 
	C307.592773,197.396988 257.538483,191.612518 206.546326,192.730362 
	C174.604843,193.430588 143.181671,197.550674 112.364166,206.188995 
	C97.658257,210.311142 84.691566,203.460724 81.025284,190.134995 
	C77.000671,175.506866 84.611504,162.286240 99.516075,158.089478 
	C147.495087,144.579819 196.504150,141.215622 246.037949,143.539780 
	C282.909241,145.269791 319.248901,150.612396 355.210266,160.811646 
z"/>
<path fill="#000101" opacity="1.000000" stroke="none" 
	d="
M406.941284,288.330811 
	C407.469238,293.107086 408.798920,297.675568 408.087738,301.900513 
	C405.854828,315.165558 392.352722,321.868530 380.251160,316.005310 
	C368.282715,310.206604 356.766205,303.380554 344.532318,298.240692 
	C294.166718,277.080383 241.542969,269.682434 187.193008,273.719391 
	C166.044662,275.290192 145.298019,279.045105 124.917122,284.930298 
	C112.642632,288.474670 101.703239,283.106049 98.316818,272.156647 
	C94.565880,260.028625 100.617081,248.730972 113.375786,244.938126 
	C145.337891,235.436600 178.028580,230.946152 211.380966,230.857300 
	C272.475800,230.694519 330.733398,242.622696 385.179535,271.078278 
	C389.306610,273.235260 393.626495,275.230988 397.259644,278.066681 
	C400.838226,280.859833 403.657043,284.626373 406.941284,288.330811 
z"/>
<path fill="#000201" opacity="1.000000" stroke="none" 
	d="
M370.873718,356.120605 
	C376.793121,361.620392 377.721619,368.199768 375.752197,375.177216 
	C374.127106,380.934723 369.803986,385.067627 363.999756,385.332184 
	C359.336639,385.544708 353.968689,384.335266 349.934814,381.995758 
	C326.527496,368.420654 301.697876,358.804840 275.189667,353.484344 
	C245.888611,347.603333 216.299500,346.293854 186.686172,349.689362 
	C167.219833,351.921326 147.929169,355.729584 128.590317,359.011505 
	C118.435707,360.734833 110.472984,356.114868 108.329269,346.824036 
	C106.175049,337.487732 111.087196,328.515106 120.554024,326.399414 
	C180.606873,312.978577 240.794006,309.067749 301.044495,325.188934 
	C323.335052,331.153168 344.494171,339.967804 364.380310,351.733765 
	C366.522705,353.001373 368.529785,354.497650 370.873718,356.120605 
z"/>
</svg>